# xmcd
#
# Track frame offsets:
#	150
#	33844
#	71158
#	98069
#	116475
#	143963
#	172224
#	204150
#	219327
#
# Disc length: 4146 seconds
#
# Revision: 1
# Processed by: cddbd v1.5.2PL0 Copyright (c) Steve Scherf et al.
# Submitted via: audiograbber 1.83.01
#
DISCID=7f103009
DTITLE=Grateful Dead - 90-03-22 Copps Coliseum, Hamilton, Ontario, Canada
DYEAR=1900
DGENRE=
TTITLE0=Feel Like A Stranger
TTITLE1=West LA Fadeaway
TTITLE2=Easy To Love You
TTITLE3=BIODTL
TTITLE4=It Must Have Been The Roses
TTITLE5=This Could Be The Last Time
TTITLE6=Picasso Moon
TTITLE7=Don't Ease Me In
TTITLE8=Scarlet Begonias > Fire On The Mountain
EXTD=
EXTT0=
EXTT1=
EXTT2=
EXTT3=
EXTT4=
EXTT5=
EXTT6=
EXTT7=
EXTT8=
PLAYORDER=
